<svg width="120" height="30" viewBox="0 0 120 30" fill="none" xmlns="http://www.w3.org/2000/svg">
<path d="M24.7045 15.7631C24.7166 14.8432 24.9669 13.9413 25.4321 13.1412C25.8972 12.3411 26.5621 11.6688 27.3648 11.187C26.8548 10.476 26.1821 9.89081 25.4 9.478C24.6178 9.0652 23.7479 8.83613 22.8592 8.80898C20.9635 8.61471 19.1258 9.91644 18.1598 9.91644C17.1751 9.91644 15.6878 8.82827 14.0862 8.86044C13.0502 8.89311 12.0406 9.18722 11.1557 9.7141C10.2708 10.241 9.54075 10.9827 9.03674 11.8669C6.85352 15.5573 8.48201 20.9809 10.5734 23.964C11.6197 25.4247 12.8426 27.0564 14.4428 26.9985C16.0086 26.9351 16.5934 26.0237 18.4835 26.0237C20.3561 26.0237 20.9048 26.9985 22.5374 26.9617C24.2176 26.9351 25.2762 25.4945 26.2859 24.02C27.0377 22.9792 27.6162 21.8288 28 20.6116C27.0238 20.2085 26.1908 19.5338 25.6048 18.6716C25.0187 17.8094 24.7056 16.7979 24.7045 15.7631Z" fill="white"/>
<path d="M21.6208 6.84713C22.5369 5.77343 22.9883 4.39335 22.879 3C21.4794 3.14352 20.1865 3.7966 19.258 4.82911C18.804 5.33351 18.4563 5.92033 18.2348 6.55601C18.0132 7.19168 17.9222 7.86375 17.9669 8.5338C18.6669 8.54084 19.3595 8.3927 19.9924 8.10054C20.6254 7.80838 21.1821 7.37982 21.6208 6.84713Z" fill="white"/>
<path d="M36.791 3.50146H38.8608C40.6494 3.50146 41.5195 4.56494 41.5195 6.49414C41.5195 8.42334 40.6406 9.5 38.8608 9.5H36.791V3.50146ZM37.7886 4.34082V8.66064H38.751C39.9375 8.66064 40.4956 7.94434 40.4956 6.50732C40.4956 5.06152 39.9331 4.34082 38.751 4.34082H37.7886ZM44.6748 4.77588C45.8877 4.77588 46.7358 5.5625 46.7358 6.86768V7.46973C46.7358 8.81885 45.8877 9.5791 44.6748 9.5791C43.4443 9.5791 42.605 8.82764 42.605 7.47412V6.87207C42.605 5.60205 43.4575 4.77588 44.6748 4.77588ZM44.6792 5.5625C43.9849 5.5625 43.5894 6.14258 43.5894 6.92041V7.43896C43.5894 8.2168 43.9585 8.79248 44.6792 8.79248C45.3911 8.79248 45.7559 8.22119 45.7559 7.43896V6.92041C45.7559 6.14258 45.3735 5.5625 44.6792 5.5625ZM53.8989 4.85498L52.6772 9.5H51.6841L50.7129 6.07227H50.6865L49.7329 9.5H48.7354L47.4609 4.85498H48.5112L49.2583 8.39697H49.3022L50.2383 4.85498H51.1567L52.1191 8.39697H52.1631L52.9233 4.85498H53.8989ZM54.8657 9.5V4.85498H55.8237V5.68994H55.8721C55.9907 5.3252 56.3291 4.78467 57.2695 4.78467C58.2056 4.78467 58.834 5.30322 58.834 6.3623V9.5H57.8584V6.64795C57.8584 5.94043 57.4893 5.61523 56.9399 5.61523C56.2192 5.61523 55.8413 6.16895 55.8413 6.92041V9.5H54.8657ZM60.3105 9.5V3.18506H61.2861V9.5H60.3105ZM64.6348 4.77588C65.8477 4.77588 66.6958 5.5625 66.6958 6.86768V7.46973C66.6958 8.81885 65.8477 9.5791 64.6348 9.5791C63.4043 9.5791 62.5649 8.82764 62.5649 7.47412V6.87207C62.5649 5.60205 63.4175 4.77588 64.6348 4.77588ZM64.6392 5.5625C63.9448 5.5625 63.5493 6.14258 63.5493 6.92041V7.43896C63.5493 8.2168 63.9185 8.79248 64.6392 8.79248C65.3511 8.79248 65.7158 8.22119 65.7158 7.43896V6.92041C65.7158 6.14258 65.3335 5.5625 64.6392 5.5625ZM69.2227 9.57031C68.3218 9.57031 67.7021 9.0166 67.7021 8.15088C67.7021 7.3291 68.2734 6.77539 69.3457 6.77539H70.519V6.34033C70.519 5.80859 70.1807 5.55811 69.6445 5.55811C69.1172 5.55811 68.8799 5.77783 68.8052 6.08545H67.8779C67.9351 5.30762 68.5195 4.78467 69.6753 4.78467C70.6685 4.78467 71.4902 5.19775 71.4902 6.35352V9.5H70.563V8.89795H70.519C70.3125 9.25391 69.9082 9.57031 69.2227 9.57031ZM69.5259 8.81445C70.0796 8.81445 70.519 8.43652 70.519 7.93115V7.43018H69.4995C68.9326 7.43018 68.6821 7.71582 68.6821 8.10254C68.6821 8.58594 69.0864 8.81445 69.5259 8.81445ZM74.4961 4.79346C75.1509 4.79346 75.6519 5.0835 75.832 5.55371H75.8804V3.18506H76.856V9.5H75.9067V8.75732H75.8584C75.7178 9.22754 75.1597 9.56152 74.4829 9.56152C73.415 9.56152 72.7207 8.80127 72.7207 7.5752V6.77979C72.7207 5.55371 73.4282 4.79346 74.4961 4.79346ZM74.7686 5.59326C74.1182 5.59326 73.7139 6.07666 73.7139 6.92041V7.43018C73.7139 8.27832 74.1226 8.76172 74.7905 8.76172C75.4497 8.76172 75.8804 8.28271 75.8804 7.4917V6.78857C75.8804 6.07227 75.4102 5.59326 74.7686 5.59326ZM82.2129 4.77588C83.4258 4.77588 84.2739 5.5625 84.2739 6.86768V7.46973C84.2739 8.81885 83.4258 9.5791 82.2129 9.5791C80.9824 9.5791 80.1431 8.82764 80.1431 7.47412V6.87207C80.1431 5.60205 80.9956 4.77588 82.2129 4.77588ZM82.2173 5.5625C81.5229 5.5625 81.1274 6.14258 81.1274 6.92041V7.43896C81.1274 8.2168 81.4966 8.79248 82.2173 8.79248C82.9292 8.79248 83.2939 8.22119 83.2939 7.43896V6.92041C83.2939 6.14258 82.9116 5.5625 82.2173 5.5625ZM85.5308 9.5V4.85498H86.4888V5.68994H86.5371C86.6558 5.3252 86.9941 4.78467 87.9346 4.78467C88.8706 4.78467 89.499 5.30322 89.499 6.3623V9.5H88.5234V6.64795C88.5234 5.94043 88.1543 5.61523 87.605 5.61523C86.8843 5.61523 86.5063 6.16895 86.5063 6.92041V9.5H85.5308ZM93.2739 4.88574V3.72559H94.2275V4.88574H95.269V5.65039H94.2275V8.11572C94.2275 8.62109 94.4165 8.76172 94.9395 8.76172C95.0713 8.76172 95.2471 8.75293 95.3218 8.74414V9.49121C95.2427 9.50439 94.9175 9.53076 94.6978 9.53076C93.5684 9.53076 93.2607 9.12646 93.2607 8.19482V5.65039H92.5532V4.88574H93.2739ZM96.4995 9.5V3.18506H97.4707V5.68994H97.519C97.6201 5.36035 97.998 4.78467 98.9297 4.78467C99.835 4.78467 100.481 5.30762 100.481 6.3667V9.5H99.5098V6.65234C99.5098 5.94482 99.1187 5.61523 98.5649 5.61523C97.8662 5.61523 97.4707 6.16455 97.4707 6.92041V9.5H96.4995ZM103.755 9.5791C102.489 9.5791 101.703 8.80127 101.703 7.4917V6.86328C101.703 5.54492 102.564 4.77588 103.698 4.77588C104.862 4.77588 105.684 5.58447 105.684 6.86328V7.4082H102.669V7.63672C102.669 8.30469 103.065 8.79688 103.75 8.79688C104.26 8.79688 104.612 8.55518 104.678 8.26514H105.631C105.574 8.80127 105.007 9.5791 103.755 9.5791ZM102.669 6.771H104.73V6.70947C104.73 6.01074 104.322 5.54492 103.702 5.54492C103.083 5.54492 102.669 6.01074 102.669 6.70947V6.771Z" fill="white"/>
<path d="M38.2061 25.5H36.1758L40.3066 13.5029H42.5391L46.6611 25.5H44.5518L43.4883 22.1777H39.2783L38.2061 25.5ZM41.4316 15.5771H41.3525L39.7266 20.6484H43.04L41.4316 15.5771ZM52.2644 25.6318C51.0603 25.6318 50.1462 25.0605 49.654 24.208H49.5837V28.585H47.6325V16.21H49.531V17.5723H49.6013C50.1111 16.6846 51.0603 16.0869 52.3083 16.0869C54.3913 16.0869 55.8767 17.6602 55.8767 20.4375V21.2637C55.8767 24.0234 54.4089 25.6318 52.2644 25.6318ZM51.8161 24.0234C53.0554 24.0234 53.8991 23.0303 53.8991 21.1582V20.5078C53.8991 18.7061 53.1081 17.6777 51.781 17.6777C50.4187 17.6777 49.5661 18.7852 49.5661 20.499V21.1582C49.5661 22.916 50.4275 24.0234 51.8161 24.0234ZM62.183 25.6318C60.9789 25.6318 60.0649 25.0605 59.5727 24.208H59.5024V28.585H57.5512V16.21H59.4496V17.5723H59.52C60.0297 16.6846 60.9789 16.0869 62.227 16.0869C64.31 16.0869 65.7954 17.6602 65.7954 20.4375V21.2637C65.7954 24.0234 64.3276 25.6318 62.183 25.6318ZM61.7348 24.0234C62.9741 24.0234 63.8178 23.0303 63.8178 21.1582V20.5078C63.8178 18.7061 63.0268 17.6777 61.6996 17.6777C60.3373 17.6777 59.4848 18.7852 59.4848 20.499V21.1582C59.4848 22.916 60.3461 24.0234 61.7348 24.0234ZM69.8387 22.1689H71.7899C71.8778 23.2061 72.7919 24.0938 74.4882 24.0938C76.0438 24.0938 76.9667 23.3643 76.9667 22.2305C76.9667 21.3164 76.3514 20.8242 75.0682 20.5166L73.0995 20.0244C71.5526 19.6641 70.1639 18.7412 70.1639 16.79C70.1639 14.4961 72.1679 13.2393 74.497 13.2393C76.8261 13.2393 78.7684 14.4961 78.8124 16.7373H76.8964C76.8085 15.7178 76.0262 14.874 74.4706 14.874C73.0995 14.874 72.1679 15.5244 72.1679 16.6406C72.1679 17.4229 72.7128 17.9854 73.829 18.2402L75.7889 18.7236C77.5907 19.1631 78.9618 20.0156 78.9618 22.0547C78.9618 24.4102 77.0546 25.7373 74.3387 25.7373C70.9989 25.7373 69.8827 23.7861 69.8387 22.1689ZM81.3395 16.21V13.9512H83.2555V16.21H85.066V17.7744H83.2555V22.7314C83.2555 23.7422 83.6334 24.0234 84.6793 24.0234C84.8463 24.0234 85.0045 24.0234 85.1188 24.0059V25.5C84.9605 25.5264 84.5914 25.5615 84.1959 25.5615C81.9371 25.5615 81.3131 24.7529 81.3131 22.8896V17.7744H80.0299V16.21H81.3395ZM90.3353 16.0518C93.0071 16.0518 94.4573 17.9326 94.4573 20.4639V21.2109C94.4573 23.8301 93.0159 25.6582 90.3353 25.6582C87.6546 25.6582 86.1956 23.8301 86.1956 21.2109V20.4639C86.1956 17.9414 87.6634 16.0518 90.3353 16.0518ZM90.3353 17.6162C88.8851 17.6162 88.1644 18.8027 88.1644 20.4902V21.2021C88.1644 22.8633 88.8763 24.085 90.3353 24.085C91.7943 24.085 92.4974 22.8721 92.4974 21.2021V20.4902C92.4974 18.7939 91.7855 17.6162 90.3353 17.6162ZM96.1055 25.5V16.21H98.0567V17.4316H98.127C98.3643 16.8516 99.0586 16.0781 100.351 16.0781C100.606 16.0781 100.825 16.0957 101.01 16.1309V17.8535C100.843 17.8096 100.5 17.7832 100.175 17.7832C98.6104 17.7832 98.083 18.75 98.083 19.998V25.5H96.1055ZM105.743 25.6582C103.256 25.6582 101.674 24.0146 101.674 21.2637V20.3232C101.674 17.7305 103.22 16.0518 105.664 16.0518C108.142 16.0518 109.636 17.792 109.636 20.4111V21.2988H103.598V21.5186C103.598 23.083 104.442 24.1201 105.769 24.1201C106.762 24.1201 107.439 23.6279 107.677 22.8281H109.531C109.25 24.3311 108.037 25.6582 105.743 25.6582ZM103.598 19.9365H107.729V19.9189C107.729 18.6006 106.912 17.5635 105.673 17.5635C104.416 17.5635 103.598 18.6006 103.598 19.9189V19.9365Z" fill="white"/>
</svg>
