<svg width="120" height="30" viewBox="0 0 120 30" fill="none" xmlns="http://www.w3.org/2000/svg">
<path d="M17.8048 14.4617L8.0896 25.0059C8.09051 25.0078 8.09051 25.0106 8.09142 25.0125C8.38981 26.1574 9.41179 27 10.6254 27C11.1108 27 11.5662 26.8656 11.9567 26.6305L11.9877 26.6118L22.9229 20.1593L17.8048 14.4617Z" fill="#EA4335"/>
<path d="M27.6331 12.6662L27.624 12.6597L22.9028 9.86123L17.5839 14.7013L22.9219 20.1582L27.6176 17.3878C28.4406 16.9324 29 16.045 29 15.0223C29 14.0052 28.4489 13.1225 27.6331 12.6662Z" fill="#FBBC04"/>
<path d="M8.08942 4.99331C8.03102 5.21353 8 5.44494 8 5.68382V24.3163C8 24.5552 8.03102 24.7866 8.09034 25.0059L18.1386 14.7313L8.08942 4.99331Z" fill="#4285F4"/>
<path d="M17.8766 14.9999L22.9044 9.85935L11.9819 3.38351C11.585 3.13996 11.1215 3 10.626 3C9.41237 3 8.38856 3.84447 8.09018 4.99034C8.09018 4.99127 8.08927 4.9922 8.08927 4.99314L17.8766 14.9999Z" fill="#34A853"/>
<path d="M43.61 6.71C43.61 7.71 43.3133 8.50667 42.72 9.1C42.0533 9.80667 41.1767 10.16 40.09 10.16C39.05 10.16 38.17 9.8 37.45 9.08C36.73 8.36 36.37 7.47333 36.37 6.42C36.37 5.36667 36.73 4.48 37.45 3.76C38.17 3.04 39.05 2.68 40.09 2.68C40.6167 2.68 41.1133 2.77333 41.58 2.96C42.0467 3.14667 42.43 3.41 42.73 3.75L42.07 4.41C41.85 4.14333 41.5633 3.93667 41.21 3.79C40.8633 3.63667 40.49 3.56 40.09 3.56C39.31 3.56 38.65 3.83 38.11 4.37C37.5767 4.91667 37.31 5.6 37.31 6.42C37.31 7.24 37.5767 7.92333 38.11 8.47C38.65 9.01 39.31 9.28 40.09 9.28C40.8033 9.28 41.3967 9.08 41.87 8.68C42.3433 8.28 42.6167 7.73 42.69 7.03H40.09V6.17H43.56C43.5933 6.35667 43.61 6.53667 43.61 6.71ZM48.9078 2.84V3.72H45.6478V5.99H48.5878V6.85H45.6478V9.12H48.9078V10H44.7278V2.84H48.9078ZM52.5877 3.72V10H51.6677V3.72H49.6677V2.84H54.5877V3.72H52.5877ZM58.6654 10H57.7454V2.84H58.6654V10ZM62.5487 3.72V10H61.6287V3.72H59.6287V2.84H64.5487V3.72H62.5487ZM74.521 6.42C74.521 7.48 74.1677 8.36667 73.461 9.08C72.7477 9.8 71.8743 10.16 70.841 10.16C69.801 10.16 68.9277 9.8 68.221 9.08C67.5143 8.36667 67.161 7.48 67.161 6.42C67.161 5.36 67.5143 4.47333 68.221 3.76C68.9277 3.04 69.801 2.68 70.841 2.68C71.881 2.68 72.7543 3.04333 73.461 3.77C74.1677 4.48333 74.521 5.36667 74.521 6.42ZM68.101 6.42C68.101 7.24667 68.361 7.93 68.881 8.47C69.4077 9.01 70.061 9.28 70.841 9.28C71.621 9.28 72.271 9.01 72.791 8.47C73.3177 7.93667 73.581 7.25333 73.581 6.42C73.581 5.58667 73.3177 4.90333 72.791 4.37C72.271 3.83 71.621 3.56 70.841 3.56C70.061 3.56 69.4077 3.83 68.881 4.37C68.361 4.91 68.101 5.59333 68.101 6.42ZM76.5267 10H75.6067V2.84H76.7267L80.2067 8.41H80.2467L80.2067 7.03V2.84H81.1267V10H80.1667L76.5267 4.16H76.4867L76.5267 5.54V10Z" fill="white"/>
<path d="M93.5181 26.4097H95.1469V15.3981H93.5181V26.4097ZM108.189 19.3646L106.322 24.1388H106.266L104.328 19.3646H102.573L105.479 26.0371L103.823 29.749H105.521L110 19.3646H108.189ZM98.9519 25.1588C98.4176 25.1588 97.6739 24.8902 97.6739 24.2234C97.6739 23.3742 98.6001 23.0483 99.4005 23.0483C100.116 23.0483 100.454 23.2042 100.889 23.4165C100.762 24.4365 99.892 25.1588 98.9519 25.1588ZM99.1483 19.1241C97.969 19.1241 96.7469 19.6482 96.2424 20.8101L97.6879 21.4188C97.9969 20.8101 98.5721 20.611 99.1762 20.611C100.019 20.611 100.875 21.121 100.889 22.0283V22.1411C100.594 21.971 99.9627 21.7165 99.1902 21.7165C97.632 21.7165 96.0451 22.5806 96.0451 24.1952C96.0451 25.6689 97.323 26.6184 98.7546 26.6184C99.8501 26.6184 100.454 26.1225 100.833 25.5411H100.889V26.3912H102.461V22.1692C102.461 20.2146 101.015 19.1241 99.1483 19.1241M89.0821 20.7053H86.7655V16.9308H89.0821C90.2998 16.9308 90.9911 17.9482 90.9911 18.8176C90.9911 19.6711 90.2998 20.7053 89.0821 20.7053ZM89.0402 15.3981H85.1375V26.4097H86.7655V22.2379H89.0402C90.8453 22.2379 92.6199 20.9184 92.6199 18.8176C92.6199 16.7168 90.8453 15.3981 89.0402 15.3981M67.7583 25.1606C66.6332 25.1606 65.6913 24.2102 65.6913 22.9047C65.6913 21.5852 66.6332 20.6198 67.7583 20.6198C68.8695 20.6198 69.7406 21.5852 69.7406 22.9047C69.7406 24.2102 68.8695 25.1606 67.7583 25.1606ZM69.6289 19.9812H69.5722C69.2064 19.5417 68.5038 19.1444 67.6178 19.1444C65.7611 19.1444 64.0599 20.7898 64.0599 22.9047C64.0599 25.0047 65.7611 26.6369 67.6178 26.6369C68.5038 26.6369 69.2064 26.2396 69.5722 25.7851H69.6289V26.3251C69.6289 27.7582 68.8695 28.5246 67.6457 28.5246C66.6471 28.5246 66.0282 27.8005 65.7751 27.1901L64.3549 27.7864C64.7626 28.78 65.8458 30 67.6457 30C69.5582 30 71.1757 28.8646 71.1757 26.0978V19.3708H69.6289V19.9812ZM72.3008 26.4097H73.9322V15.3973H72.3008V26.4097ZM76.3362 22.777C76.2943 21.3298 77.4474 20.5916 78.2766 20.5916C78.9243 20.5916 79.4725 20.9176 79.6549 21.3862L76.3362 22.777ZM81.3989 21.528C81.0899 20.6912 80.1472 19.1444 78.2208 19.1444C76.3083 19.1444 74.7196 20.6621 74.7196 22.8907C74.7196 24.9906 76.2943 26.6369 78.4032 26.6369C80.1053 26.6369 81.0899 25.5869 81.4976 24.9765L80.2319 24.1247C79.8103 24.7493 79.2333 25.1606 78.4032 25.1606C77.5739 25.1606 76.983 24.7774 76.6033 24.0261L81.5674 21.9534L81.3989 21.528ZM41.8501 20.2939V21.883H45.6184C45.5058 22.777 45.2107 23.4297 44.7612 23.8834C44.2121 24.4374 43.3541 25.0479 41.8501 25.0479C39.5291 25.0479 37.7152 23.1602 37.7152 20.8189C37.7152 18.4767 39.5291 16.5899 41.8501 16.5899C43.1018 16.5899 44.0157 17.0867 44.6905 17.7254L45.8017 16.604C44.8589 15.6959 43.6081 15 41.8501 15C38.6719 15 36 17.6117 36 20.8189C36 24.0261 38.6719 26.6369 41.8501 26.6369C43.5653 26.6369 44.8589 26.0688 45.8715 25.0047C46.9129 23.9547 47.2358 22.4793 47.2358 21.2866C47.2358 20.9176 47.2079 20.5775 47.1512 20.2939H41.8501ZM51.5208 25.1606C50.3957 25.1606 49.425 24.2243 49.425 22.8907C49.425 21.5421 50.3957 20.6198 51.5208 20.6198C52.6451 20.6198 53.6158 21.5421 53.6158 22.8907C53.6158 24.2243 52.6451 25.1606 51.5208 25.1606ZM51.5208 19.1444C49.4669 19.1444 47.7936 20.7194 47.7936 22.8907C47.7936 25.0479 49.4669 26.6369 51.5208 26.6369C53.5739 26.6369 55.2472 25.0479 55.2472 22.8907C55.2472 20.7194 53.5739 19.1444 51.5208 19.1444ZM59.65 25.1606C58.5249 25.1606 57.5542 24.2243 57.5542 22.8907C57.5542 21.5421 58.5249 20.6198 59.65 20.6198C60.7752 20.6198 61.745 21.5421 61.745 22.8907C61.745 24.2243 60.7752 25.1606 59.65 25.1606ZM59.65 19.1444C57.597 19.1444 55.9237 20.7194 55.9237 22.8907C55.9237 25.0479 57.597 26.6369 59.65 26.6369C61.7031 26.6369 63.3764 25.0479 63.3764 22.8907C63.3764 20.7194 61.7031 19.1444 59.65 19.1444Z" fill="white"/>
</svg>
